<svg width="272" height="203" viewBox="0 0 272 203" fill="none" xmlns="http://www.w3.org/2000/svg">
    <path d="M107.934 14.3012C115.739 3.11034 131.698 -3.66815 143.481 3.22658C155.393 10.1969 157.207 26.2769 158.574 40.0083C159.941 53.7396 167.279 66.3093 179.498 66.3093C191.716 66.3093 194.12 60.5657 201.713 50.7586C209.306 40.9515 224.988 26.5617 238.342 21.911C247.758 18.6322 259.047 21.725 265.48 29.3406C271.912 36.9562 273.064 48.6005 268.242 57.3323C262.752 67.2791 251.166 72.2729 239.988 74.3366C228.809 76.4062 217.224 76.2842 206.301 79.4234C195.373 82.5627 184.636 90.0737 182.222 101.183C179.727 112.705 186.788 124.071 194.651 132.861C202.509 141.656 211.82 149.906 215.368 161.149C218.91 172.351 215.636 185.42 207.237 193.634C198.827 201.849 185.689 204.819 174.563 201.035C153.979 194.018 143.034 167.352 121.404 165.096C98.4476 162.689 82.0462 189.536 59.1309 192.39C47.2777 193.873 34.808 187.978 28.4278 177.88C22.0475 167.782 22.0824 153.998 28.5092 143.935C36.6459 131.186 53.6405 124.454 57.6594 109.88C60.6372 99.0729 55.0422 87.5157 47.1207 79.5629C39.205 71.6218 29.1315 66.2443 20.1399 59.5356C11.154 52.8095 2.81375 43.9672 0.940969 32.91C-1.34475 19.4229 7.97843 4.98224 21.21 1.49999C34.4358 -1.97644 43.0346 1.76344 54.3151 18.8706C65.5957 35.9777 76.9048 35.1017 82.1276 35.3749C98.5523 36.2586 102.845 21.5971 107.934 14.3012ZM208.918 100.747C204.684 108.049 206.307 117.92 211.838 124.292C217.369 130.669 226.163 133.68 234.602 133.285C243.041 132.89 252.155 128.256 254.185 120.059C255.755 113.711 252.55 106.909 247.618 102.619C237.935 94.207 217.154 86.574 208.924 100.741L208.918 100.747Z" fill="#80C23E" fill-opacity="0.9"/>
    <path d="M120.883 151.583C113.646 151.583 106.942 150.557 100.763 148.524C94.5835 146.464 89.1857 143.396 84.5788 139.312C79.9902 135.209 76.3855 130.053 73.7648 123.833C71.1348 117.623 69.8291 110.359 69.8291 102.051C69.8291 93.8735 71.1348 86.8335 73.7648 80.9404C76.3855 75.0287 79.843 70.1799 84.1374 66.3942C88.4225 62.6178 93.3145 59.8297 98.8135 58.0394C104.331 56.2305 109.968 55.3167 115.733 55.3167C122.207 55.3167 128.101 56.3144 133.426 58.3005C138.768 60.296 143.366 63.028 147.219 66.5061C151.063 69.9655 154.06 74.1149 156.194 78.9636C158.346 83.8124 159.431 89.09 159.431 94.778C159.431 99.0113 158.263 102.238 155.936 104.475C153.601 106.713 150.355 108.149 146.189 108.765L100.837 115.628C102.179 119.73 104.938 122.817 109.113 124.877C113.278 126.92 118.051 127.936 123.421 127.936C128.442 127.936 133.187 127.293 137.656 125.996C142.143 124.682 145.784 123.152 148.58 121.409C150.539 122.658 152.194 124.393 153.545 126.63C154.888 128.868 155.569 131.237 155.569 133.717C155.569 139.293 152.994 143.443 147.844 146.175C143.945 148.291 139.541 149.718 134.639 150.464C129.729 151.21 125.15 151.583 120.883 151.583ZM115.733 78.4042C112.791 78.4042 110.234 78.9077 108.083 79.8961C105.949 80.8938 104.202 82.1713 102.86 83.7378C101.508 85.2856 100.487 87.0107 99.8066 88.9222C99.1445 90.843 98.7491 92.7919 98.6296 94.778L130.042 89.5936C129.674 87.1132 128.322 84.6236 125.996 82.134C123.66 79.6536 120.239 78.4042 115.733 78.4042Z" fill="#65469B"/>
</svg>
