<svg width="309" height="203" viewBox="0 0 309 203" fill="none" xmlns="http://www.w3.org/2000/svg">
<mask id="path-1-inside-1_281_1569" fill="white">
<path d="M107.338 14.3235C115.143 3.13258 131.102 -3.6459 142.886 3.24885C154.797 10.2192 156.612 26.2992 157.979 40.0305C159.345 53.7619 166.684 66.3316 178.902 66.3316C191.12 66.3316 193.524 60.588 201.117 50.7809C208.71 40.9738 224.392 26.584 237.746 21.9333C247.162 18.6545 258.451 21.7472 264.884 29.3628C271.316 36.9785 272.468 48.6228 267.647 57.3546C262.156 67.3014 250.571 72.2951 239.392 74.3589C228.214 76.4285 216.628 76.3064 205.705 79.4457C194.777 82.5849 184.04 90.0959 181.627 101.205C179.132 112.728 186.192 124.093 194.056 132.883C201.913 141.679 211.225 149.928 214.773 161.171C218.315 172.374 215.04 185.442 206.642 193.657C198.232 201.871 185.093 204.842 173.967 201.057C153.384 194.04 142.438 167.374 120.808 165.118C97.8519 162.712 81.4505 189.558 58.5352 192.413C46.682 193.895 34.2123 188 27.8321 177.902C21.4518 167.804 21.4867 154.021 27.9135 143.957C36.0502 131.209 53.0448 124.477 57.0637 109.902C60.0415 99.0951 54.4464 87.538 46.5249 79.5852C38.6093 71.644 28.5358 66.2666 19.5441 59.5579C10.5583 52.8317 2.21804 43.9895 0.345265 32.9323C-1.94045 19.4451 7.38272 5.00451 20.6143 1.52225C33.8401 -1.95419 42.4389 1.78566 53.7194 18.8928C65 36 76.3091 35.124 81.5319 35.3972C97.9565 36.2808 102.249 21.6193 107.338 14.3235ZM208.323 100.769C204.088 108.071 205.711 117.942 211.242 124.314C216.773 130.691 225.567 133.703 234.006 133.307C242.445 132.912 251.559 128.279 253.589 120.082C255.159 113.733 251.955 106.932 247.023 102.641C237.339 94.2293 216.558 86.5962 208.328 100.764L208.323 100.769ZM289.038 0.382816C281.169 2.17336 275.556 10.8063 277.127 18.7184C278.691 26.6305 287.165 32.4847 295.128 31.1476C303.078 29.8105 309.179 21.5089 308.068 13.5212C306.963 5.53353 298.838 -0.7915 290.812 0.080518"/>
</mask>
<path d="M107.338 14.3235C115.143 3.13258 131.102 -3.6459 142.886 3.24885C154.797 10.2192 156.612 26.2992 157.979 40.0305C159.345 53.7619 166.684 66.3316 178.902 66.3316C191.12 66.3316 193.524 60.588 201.117 50.7809C208.71 40.9738 224.392 26.584 237.746 21.9333C247.162 18.6545 258.451 21.7472 264.884 29.3628C271.316 36.9785 272.468 48.6228 267.647 57.3546C262.156 67.3014 250.571 72.2951 239.392 74.3589C228.214 76.4285 216.628 76.3064 205.705 79.4457C194.777 82.5849 184.04 90.0959 181.627 101.205C179.132 112.728 186.192 124.093 194.056 132.883C201.913 141.679 211.225 149.928 214.773 161.171C218.315 172.374 215.04 185.442 206.642 193.657C198.232 201.871 185.093 204.842 173.967 201.057C153.384 194.04 142.438 167.374 120.808 165.118C97.8519 162.712 81.4505 189.558 58.5352 192.413C46.682 193.895 34.2123 188 27.8321 177.902C21.4518 167.804 21.4867 154.021 27.9135 143.957C36.0502 131.209 53.0448 124.477 57.0637 109.902C60.0415 99.0951 54.4464 87.538 46.5249 79.5852C38.6093 71.644 28.5358 66.2666 19.5441 59.5579C10.5583 52.8317 2.21804 43.9895 0.345265 32.9323C-1.94045 19.4451 7.38272 5.00451 20.6143 1.52225C33.8401 -1.95419 42.4389 1.78566 53.7194 18.8928C65 36 76.3091 35.124 81.5319 35.3972C97.9565 36.2808 102.249 21.6193 107.338 14.3235ZM208.323 100.769C204.088 108.071 205.711 117.942 211.242 124.314C216.773 130.691 225.567 133.703 234.006 133.307C242.445 132.912 251.559 128.279 253.589 120.082C255.159 113.733 251.955 106.932 247.023 102.641C237.339 94.2293 216.558 86.5962 208.328 100.764L208.323 100.769ZM289.038 0.382816C281.169 2.17336 275.556 10.8063 277.127 18.7184C278.691 26.6305 287.165 32.4847 295.128 31.1476C303.078 29.8105 309.179 21.5089 308.068 13.5212C306.963 5.53353 298.838 -0.7915 290.812 0.080518" fill="#80C23E" fill-opacity="0.9"/>
<path d="M107.338 14.3235L113.899 18.9003L113.9 18.9L107.338 14.3235ZM142.886 3.24885L146.926 -3.65582L146.926 -3.656L142.886 3.24885ZM157.979 40.0305L150.018 40.8229L157.979 40.0305ZM237.746 21.9333L235.115 14.3782L235.115 14.3783L237.746 21.9333ZM264.884 29.3628L258.772 34.5251L258.772 34.5251L264.884 29.3628ZM267.647 57.3546L260.643 53.4875L260.643 53.4886L267.647 57.3546ZM239.392 74.3589L237.94 66.4918L237.936 66.4926L239.392 74.3589ZM205.705 79.4457L207.914 87.1347L207.915 87.1344L205.705 79.4457ZM181.627 101.205L173.809 99.5069L173.808 99.5123L181.627 101.205ZM194.056 132.883L200.022 127.553L200.018 127.549L194.056 132.883ZM214.773 161.171L207.143 163.578L207.145 163.583L214.773 161.171ZM206.642 193.657L212.232 199.38L212.235 199.376L206.642 193.657ZM173.967 201.057L171.386 208.629L171.391 208.631L173.967 201.057ZM120.808 165.118L119.974 173.075L119.978 173.075L120.808 165.118ZM58.5352 192.413L57.5463 184.474L57.5424 184.474L58.5352 192.413ZM27.8321 177.902L21.0689 182.175L21.0689 182.175L27.8321 177.902ZM27.9135 143.957L34.6558 148.263L34.6571 148.261L27.9135 143.957ZM57.0637 109.902L64.7758 112.029L64.7763 112.027L57.0637 109.902ZM46.5249 79.5852L52.1929 73.9395L52.1909 73.9374L46.5249 79.5852ZM19.5441 59.5579L14.7502 65.9624L14.7602 65.9699L19.5441 59.5579ZM0.345265 32.9323L8.23293 31.5963L8.2328 31.5956L0.345265 32.9323ZM20.6143 1.52225L18.5806 -6.21492L18.5782 -6.21431L20.6143 1.52225ZM81.5319 35.3972L81.9617 27.4087L81.9499 27.4081L81.5319 35.3972ZM208.323 100.769L202.662 95.1162L201.925 95.8541L201.402 96.7563L208.323 100.769ZM211.242 124.314L217.286 119.072L217.283 119.069L211.242 124.314ZM253.589 120.082L261.355 122.005L261.355 122.003L253.589 120.082ZM247.023 102.641L252.273 96.6054L252.269 96.6018L247.023 102.641ZM208.328 100.764L213.989 106.417L214.724 105.681L215.246 104.782L208.328 100.764ZM277.127 18.7184L284.975 17.1666L284.974 17.161L277.127 18.7184ZM295.128 31.1476L296.452 39.0371L296.454 39.0368L295.128 31.1476ZM308.068 13.5212L300.144 14.6175L300.145 14.6232L308.068 13.5212ZM113.9 18.9C116.836 14.6904 121.397 11.2416 126.24 9.56286C131.045 7.89721 135.444 8.16361 138.846 10.1537L146.926 -3.656C138.544 -8.56066 129.071 -8.35241 121 -5.55477C112.967 -2.77029 105.645 2.7656 100.776 9.74696L113.9 18.9ZM138.845 10.1535C142.463 12.2707 144.985 15.9703 146.767 21.5414C148.583 27.2194 149.323 33.8404 150.018 40.8229L165.939 39.2381C165.267 32.4892 164.417 24.2046 162.006 16.6672C159.561 9.02287 155.22 1.19731 146.926 -3.65582L138.845 10.1535ZM150.018 40.8229C150.805 48.7267 153.336 56.7566 157.9 63.0348C162.57 69.4577 169.665 74.3316 178.902 74.3316V58.3316C175.92 58.3316 173.237 56.9205 170.841 53.6258C168.341 50.1863 166.519 45.0657 165.939 39.2381L150.018 40.8229ZM178.902 74.3316C186.542 74.3316 192.176 72.438 196.978 68.2845C199.127 66.4252 200.909 64.2847 202.488 62.2443C203.285 61.2145 204.099 60.1184 204.899 59.0444C205.715 57.9496 206.544 56.84 207.443 55.6785L194.792 45.8833C193.793 47.1735 192.885 48.3887 192.069 49.4852C191.236 50.6024 190.521 51.564 189.834 52.4518C188.445 54.2465 187.438 55.3808 186.511 56.1832C185.158 57.3533 183.481 58.3316 178.902 58.3316V74.3316ZM207.443 55.6785C210.838 51.2928 216.232 45.6615 222.368 40.5897C228.582 35.4541 234.989 31.3646 240.377 29.4882L235.115 14.3783C227.149 17.1527 219.039 22.5835 212.175 28.2571C205.233 33.9947 198.989 40.4619 194.792 45.8833L207.443 55.6785ZM240.377 29.4883C246.663 27.2994 254.476 29.4391 258.772 34.5251L270.995 24.2006C262.426 14.0554 247.661 10.0096 235.115 14.3782L240.377 29.4883ZM258.772 34.5251C263.065 39.6068 263.861 47.6593 260.643 53.4875L274.65 61.2217C281.075 49.5863 279.568 34.3501 270.995 24.2006L258.772 34.5251ZM260.643 53.4886C256.906 60.2579 248.327 64.5741 237.94 66.4919L240.844 82.226C252.814 80.0162 267.406 74.3449 274.65 61.2205L260.643 53.4886ZM237.936 66.4926C232.728 67.4567 227.501 67.8996 221.581 68.5488C215.854 69.1768 209.654 69.987 203.495 71.7569L207.915 87.1344C212.68 85.7651 217.733 85.0667 223.325 84.4535C228.723 83.8615 234.878 83.3307 240.848 82.2252L237.936 66.4926ZM203.497 71.7566C191.301 75.26 177.13 84.221 173.809 99.5069L189.444 102.904C190.951 95.9708 198.253 89.9099 207.914 87.1347L203.497 71.7566ZM173.808 99.5123C170.419 115.164 180.065 129.243 188.093 138.217L200.018 127.549C192.32 118.943 187.845 110.291 189.445 102.899L173.808 99.5123ZM188.09 138.213C192.521 143.173 196.169 146.71 199.85 151.189C203.288 155.372 205.803 159.332 207.143 163.578L222.402 158.764C220.194 151.767 216.28 145.981 212.211 141.03C208.384 136.374 203.448 131.389 200.022 127.553L188.09 138.213ZM207.145 163.583C209.776 171.906 207.291 181.831 201.048 187.937L212.235 199.376C222.789 189.053 226.853 172.841 222.4 158.759L207.145 163.583ZM201.052 187.934C194.8 194.04 184.819 196.298 176.543 193.483L171.391 208.631C185.367 213.385 201.663 209.702 212.232 199.38L201.052 187.934ZM176.548 193.485C168.381 190.701 161.959 183.968 153.37 175.579C145.527 167.92 135.558 158.613 121.638 157.162L119.978 173.075C127.688 173.879 134.006 179.033 142.191 187.026C149.627 194.288 158.97 204.397 171.386 208.629L176.548 193.485ZM121.642 157.162C106.857 155.612 94.7062 163.606 85.1211 170.202C74.5867 177.452 66.6069 183.345 57.5463 184.474L59.524 200.351C73.3788 198.625 85.0573 189.669 94.1915 183.383C104.275 176.444 111.803 172.218 119.974 173.075L121.642 157.162ZM57.5424 184.474C48.7674 185.572 39.3195 181.106 34.5952 173.629L21.0689 182.175C29.1051 194.894 44.5966 202.218 59.528 200.351L57.5424 184.474ZM34.5952 173.629C29.8717 166.153 29.8983 155.713 34.6558 148.263L21.1712 139.652C13.0751 152.328 13.032 169.455 21.0689 182.175L34.5952 173.629ZM34.6571 148.261C37.9445 143.111 42.9564 139.243 49.3309 133.609C55.1445 128.47 62.0841 121.791 64.7758 112.029L49.3515 107.776C48.0244 112.588 44.4572 116.562 38.7346 121.62C33.5729 126.183 26.0192 132.055 21.1699 139.654L34.6571 148.261ZM64.7763 112.027C68.8441 97.2644 61.0905 82.8722 52.1929 73.9395L40.857 85.2309C47.8024 92.2037 51.239 100.926 49.3511 107.777L64.7763 112.027ZM52.1909 73.9374C47.7005 69.4326 42.7137 65.7692 37.9618 62.5112C32.9974 59.1076 28.6669 56.3831 24.3281 53.1459L14.7602 65.9699C19.413 69.4414 24.6151 72.76 28.9143 75.7075C33.4259 78.8007 37.4337 81.7966 40.859 85.2329L52.1909 73.9374ZM24.3381 53.1534C15.8211 46.7782 9.57831 39.5397 8.23293 31.5963L-7.5424 34.2682C-5.14222 48.4393 5.29546 58.8853 14.7502 65.9624L24.3381 53.1534ZM8.2328 31.5956C6.6399 22.1964 13.4188 11.6883 22.6504 9.25881L18.5782 -6.21431C1.34661 -1.67934 -10.5208 16.6938 -7.54227 34.269L8.2328 31.5956ZM22.6481 9.25943C28.0879 7.82955 31.3816 8.15748 34.2833 9.62632C37.6092 11.3099 41.6351 15.0991 47.0407 23.2968L60.3981 14.4889C54.5232 5.5794 48.6095 -1.0549 41.5094 -4.64895C33.9851 -8.45771 26.3665 -8.26148 18.5806 -6.21492L22.6481 9.25943ZM47.0407 23.2968C53.4372 32.9971 60.298 38.2377 66.9295 40.8869C73.3446 43.4496 79.0873 43.2802 81.114 43.3863L81.9499 27.4081C78.7537 27.2409 76.2305 27.373 72.8651 26.0286C69.7163 24.7707 65.2823 21.8957 60.3981 14.4889L47.0407 23.2968ZM81.1022 43.3856C92.3435 43.9904 99.7947 39.0295 104.805 33.0813C107.161 30.2829 108.975 27.2862 110.401 24.8113C111.974 22.0792 112.891 20.3466 113.899 18.9003L100.776 9.74666C99.2407 11.9483 97.7119 14.7843 96.5361 16.8256C95.2123 19.1241 93.9723 21.1055 92.5669 22.774C90.0522 25.7596 87.145 27.6876 81.9617 27.4088L81.1022 43.3856ZM201.402 96.7563C195.195 107.46 197.786 121.017 205.201 129.558L217.283 119.069C213.636 114.868 212.982 108.682 215.243 104.783L201.402 96.7563ZM205.199 129.555C212.642 138.138 224.003 141.785 234.381 141.298L233.632 125.316C227.131 125.621 220.905 123.245 217.286 119.072L205.199 129.555ZM234.381 141.298C239.831 141.043 245.571 139.435 250.428 136.412C255.317 133.369 259.721 128.602 261.355 122.005L245.824 118.159C245.427 119.758 244.259 121.406 241.974 122.828C239.657 124.27 236.621 125.176 233.632 125.316L234.381 141.298ZM261.355 122.003C263.862 111.866 258.699 102.195 252.273 96.6054L241.772 108.677C245.21 111.668 246.456 115.601 245.823 118.161L261.355 122.003ZM252.269 96.6018C246.445 91.5425 237.483 86.789 228.393 85.3355C219.131 83.8544 207.816 85.7192 201.411 96.7452L215.246 104.782C217.071 101.641 220.261 100.238 225.867 101.135C231.646 102.059 237.917 105.328 241.776 108.681L252.269 96.6018ZM202.668 95.1104L202.662 95.1162L213.983 106.423L213.989 106.417L202.668 95.1104ZM287.263 -7.4178C275.18 -4.66836 266.864 8.10538 269.28 20.2758L284.974 17.161C284.249 13.5073 287.158 9.01508 290.813 8.18343L287.263 -7.4178ZM269.279 20.2703C271.683 32.4317 284.225 41.0905 296.452 39.0371L293.803 23.258C290.106 23.8788 285.699 20.8293 284.975 17.1666L269.279 20.2703ZM296.454 39.0368C308.668 36.9827 317.7 24.702 315.992 12.4192L300.145 14.6232C300.658 18.3157 297.488 22.6382 293.801 23.2584L296.454 39.0368ZM315.993 12.4249C314.293 0.137571 302.263 -9.21063 289.948 -7.87268L291.676 8.03372C295.414 7.62763 299.634 10.9295 300.144 14.6175L315.993 12.4249Z" fill="#80C23E" mask="url(#path-1-inside-1_281_1569)"/>
<path d="M122.883 149.583C115.646 149.583 108.943 148.557 102.763 146.524C96.5838 144.464 91.186 141.396 86.579 137.312C81.9904 133.209 78.3858 128.053 75.765 121.833C73.1351 115.623 71.8293 108.359 71.8293 100.051C71.8293 91.8735 73.1351 84.8335 75.765 78.9404C78.3858 73.0286 81.8433 68.1799 86.1376 64.3942C90.4228 60.6177 95.3148 57.8297 100.814 56.0394C106.331 54.2305 111.968 53.3167 117.734 53.3167C124.207 53.3167 130.102 54.3144 135.426 56.3005C140.768 58.2959 145.366 61.028 149.219 64.5061C153.063 67.9654 156.061 72.1148 158.194 76.9636C160.346 81.8123 161.431 87.09 161.431 92.7779C161.431 97.0113 160.263 100.238 157.937 102.475C155.601 104.713 152.355 106.149 148.189 106.765L102.837 113.628C104.179 117.73 106.938 120.817 111.113 122.877C115.278 124.919 120.051 125.936 125.421 125.936C130.442 125.936 135.187 125.292 139.656 123.996C144.143 122.682 147.785 121.152 150.58 119.409C152.539 120.658 154.194 122.393 155.546 124.63C156.888 126.868 157.569 129.237 157.569 131.717C157.569 137.293 154.994 141.443 149.845 144.175C145.946 146.291 141.541 147.718 136.64 148.464C131.729 149.21 127.15 149.583 122.883 149.583ZM117.734 76.4041C114.791 76.4041 112.235 76.9076 110.083 77.896C107.95 78.8938 106.202 80.1712 104.86 81.7377C103.508 83.2856 102.487 85.0106 101.807 86.9222C101.145 88.843 100.749 90.7918 100.63 92.7779L132.042 87.5935C131.674 85.1132 130.322 82.6236 127.996 80.1339C125.66 77.6536 122.239 76.4041 117.734 76.4041Z" fill="#65469B"/>
</svg>
