<svg width="754" height="309" viewBox="0 0 754 309" fill="none" xmlns="http://www.w3.org/2000/svg">
<mask id="path-1-inside-1_124_1317" fill="white">
<path d="M479.858 29.267C490.399 14.1546 511.95 5.00081 527.863 14.3116C543.948 23.7245 546.399 45.4393 548.245 63.9824C550.09 82.5256 560 99.5 576.5 99.5C593 99.5 596.246 91.7437 606.5 78.5C616.754 65.2562 637.931 45.824 655.964 39.5435C668.68 35.1157 683.925 39.2923 692.612 49.5766C701.299 59.8609 702.854 75.5856 696.343 87.3773C688.928 100.81 673.283 107.553 658.187 110.34C643.091 113.135 627.446 112.97 612.696 117.21C597.938 121.449 583.439 131.592 580.18 146.594C576.81 162.154 586.345 177.502 596.964 189.372C607.575 201.25 620.149 212.39 624.94 227.573C629.724 242.702 625.302 260.35 613.96 271.443C602.603 282.536 584.861 286.547 569.836 281.436C542.04 271.961 527.258 235.95 498.049 232.904C467.048 229.654 444.899 265.908 413.954 269.763C397.947 271.765 381.108 263.804 372.492 250.167C363.876 236.531 363.923 217.917 372.602 204.328C383.59 187.111 406.54 178.02 411.967 158.339C415.988 143.745 408.432 128.138 397.735 117.398C387.046 106.674 373.442 99.4122 361.3 90.3526C349.165 81.2695 337.902 69.3287 335.373 54.3968C332.286 36.1834 344.877 16.6825 362.745 11.98C380.605 7.28534 401.175 18.0721 407.451 35.4376C413.114 51.1074 437.956 57.3565 445.009 57.7255C467.189 58.9188 472.986 39.1196 479.858 29.267ZM616.23 146.006C610.512 155.866 612.704 169.196 620.173 177.801C627.642 186.413 639.518 190.479 650.914 189.945C662.311 189.412 674.618 183.155 677.359 172.085C679.48 163.512 675.152 154.327 668.492 148.534C655.415 137.174 627.352 126.866 616.238 145.998L616.23 146.006ZM725.23 10.4413C714.604 12.8593 707.024 24.5174 709.145 35.2021C711.258 45.8868 722.701 53.7923 733.454 51.9867C744.19 50.1811 752.429 38.9704 750.929 28.1837C749.437 17.3969 738.465 8.85546 727.626 10.033"/>
</mask>
<path d="M479.858 29.267C490.399 14.1546 511.95 5.00081 527.863 14.3116C543.948 23.7245 546.399 45.4393 548.245 63.9824C550.09 82.5256 560 99.5 576.5 99.5C593 99.5 596.246 91.7437 606.5 78.5C616.754 65.2562 637.931 45.824 655.964 39.5435C668.68 35.1157 683.925 39.2923 692.612 49.5766C701.299 59.8609 702.854 75.5856 696.343 87.3773C688.928 100.81 673.283 107.553 658.187 110.34C643.091 113.135 627.446 112.97 612.696 117.21C597.938 121.449 583.439 131.592 580.18 146.594C576.81 162.154 586.345 177.502 596.964 189.372C607.575 201.25 620.149 212.39 624.94 227.573C629.724 242.702 625.302 260.35 613.96 271.443C602.603 282.536 584.861 286.547 569.836 281.436C542.04 271.961 527.258 235.95 498.049 232.904C467.048 229.654 444.899 265.908 413.954 269.763C397.947 271.765 381.108 263.804 372.492 250.167C363.876 236.531 363.923 217.917 372.602 204.328C383.59 187.111 406.54 178.02 411.967 158.339C415.988 143.745 408.432 128.138 397.735 117.398C387.046 106.674 373.442 99.4122 361.3 90.3526C349.165 81.2695 337.902 69.3287 335.373 54.3968C332.286 36.1834 344.877 16.6825 362.745 11.98C380.605 7.28534 401.175 18.0721 407.451 35.4376C413.114 51.1074 437.956 57.3565 445.009 57.7255C467.189 58.9188 472.986 39.1196 479.858 29.267ZM616.23 146.006C610.512 155.866 612.704 169.196 620.173 177.801C627.642 186.413 639.518 190.479 650.914 189.945C662.311 189.412 674.618 183.155 677.359 172.085C679.48 163.512 675.152 154.327 668.492 148.534C655.415 137.174 627.352 126.866 616.238 145.998L616.23 146.006ZM725.23 10.4413C714.604 12.8593 707.024 24.5174 709.145 35.2021C711.258 45.8868 722.701 53.7923 733.454 51.9867C744.19 50.1811 752.429 38.9704 750.929 28.1837C749.437 17.3969 738.465 8.85546 727.626 10.033" fill="#80C23E" fill-opacity="0.75"/>
<path d="M479.858 29.267L486.42 33.8438L486.42 33.8435L479.858 29.267ZM527.863 14.3116L531.903 7.40697L531.903 7.40679L527.863 14.3116ZM548.245 63.9824L540.284 64.7748L548.245 63.9824ZM655.964 39.5435L653.334 31.9884L653.333 31.9886L655.964 39.5435ZM692.612 49.5766L686.5 54.7388L692.612 49.5766ZM696.343 87.3773L689.339 83.5102L689.339 83.5113L696.343 87.3773ZM658.187 110.34L656.735 102.473L656.731 102.474L658.187 110.34ZM612.696 117.21L614.905 124.899L614.906 124.898L612.696 117.21ZM580.18 146.594L572.362 144.896L572.361 144.901L580.18 146.594ZM596.964 189.372L602.93 184.043L602.926 184.039L596.964 189.372ZM624.94 227.573L617.311 229.981L617.313 229.985L624.94 227.573ZM613.96 271.443L619.55 277.166L619.554 277.162L613.96 271.443ZM569.836 281.436L567.254 289.009L567.259 289.01L569.836 281.436ZM498.049 232.904L497.214 240.86L497.219 240.861L498.049 232.904ZM413.954 269.763L412.965 261.824L412.961 261.824L413.954 269.763ZM372.492 250.167L365.729 254.441L372.492 250.167ZM372.602 204.328L379.344 208.634L379.345 208.632L372.602 204.328ZM411.967 158.339L419.679 160.466L419.679 160.464L411.967 158.339ZM397.735 117.398L403.403 111.752L403.401 111.75L397.735 117.398ZM361.3 90.3526L356.506 96.7572L356.516 96.7646L361.3 90.3526ZM335.373 54.3968L343.261 53.0609L343.261 53.0601L335.373 54.3968ZM362.745 11.98L360.711 4.24283L360.709 4.24344L362.745 11.98ZM407.451 35.4376L399.927 38.1565L399.927 38.1566L407.451 35.4376ZM445.009 57.7255L445.439 49.737L445.427 49.7364L445.009 57.7255ZM616.23 146.006L610.573 140.349L609.834 141.088L609.31 141.992L616.23 146.006ZM620.173 177.801L626.217 172.559L626.214 172.556L620.173 177.801ZM677.359 172.085L685.125 174.008L685.125 174.006L677.359 172.085ZM668.492 148.534L673.742 142.498L673.738 142.494L668.492 148.534ZM616.238 145.998L621.895 151.655L622.632 150.918L623.156 150.016L616.238 145.998ZM709.145 35.2021L716.993 33.6502L716.992 33.6447L709.145 35.2021ZM733.454 51.9867L734.779 59.8762L734.78 59.8759L733.454 51.9867ZM750.929 28.1837L743.005 29.28L743.005 29.2856L750.929 28.1837ZM486.42 33.8435C490.723 27.6732 497.366 22.6502 504.466 20.1894C511.528 17.7418 518.357 18.0184 523.823 21.2165L531.903 7.40679C521.456 1.29408 509.554 1.49216 499.226 5.07181C488.936 8.63831 479.533 15.7484 473.297 24.6905L486.42 33.8435ZM523.822 21.2163C529.527 24.5548 533.251 30.2737 535.774 38.1603C538.33 46.1538 539.349 55.3865 540.284 64.7748L556.205 63.1901C555.294 54.0353 554.165 43.139 551.013 33.2861C547.828 23.3263 542.284 13.4814 531.903 7.40697L523.822 21.2163ZM540.284 64.7748C541.31 75.0845 544.604 85.4186 550.406 93.3994C556.314 101.525 565.123 107.5 576.5 107.5V91.5C571.378 91.5 566.981 88.9878 563.347 83.9904C559.609 78.8482 557.025 71.4235 556.205 63.1901L540.284 64.7748ZM576.5 107.5C586.281 107.5 593.195 105.103 599.076 100.017C601.765 97.6913 604.034 94.9771 606.134 92.2647C607.191 90.8989 608.273 89.4422 609.359 87.9843C610.461 86.5056 611.594 84.9887 612.826 83.3976L600.174 73.6024C598.843 75.3222 597.631 76.9447 596.529 78.4251C595.41 79.9263 594.427 81.2484 593.48 82.4721C591.571 84.9389 590.076 86.6469 588.609 87.9157C586.178 90.0185 583.219 91.5 576.5 91.5V107.5ZM612.826 83.3976C617.552 77.2935 624.984 69.5425 633.412 62.5768C641.917 55.5472 650.868 49.7897 658.596 47.0984L653.333 31.9886C643.028 35.5778 632.374 42.6766 623.218 50.2442C613.985 57.8757 605.702 66.4626 600.174 73.6024L612.826 83.3976ZM658.595 47.0986C668.181 43.7606 679.95 46.9841 686.5 54.7388L698.724 44.4144C687.9 31.6004 669.179 26.4709 653.334 31.9884L658.595 47.0986ZM686.5 54.7388C693.047 62.4892 694.247 74.6222 689.339 83.5102L703.346 91.2443C711.46 76.5491 709.551 57.2326 698.724 44.4144L686.5 54.7388ZM689.339 83.5113C683.678 93.7662 671.04 99.8323 656.735 102.473L659.64 118.207C675.526 115.274 694.178 107.853 703.347 91.2432L689.339 83.5113ZM656.731 102.474C649.564 103.801 642.343 104.414 634.44 105.281C626.731 106.126 618.558 107.201 610.486 109.521L614.906 124.898C621.584 122.979 628.609 122.016 636.184 121.186C643.565 120.376 651.714 119.675 659.644 118.207L656.731 102.474ZM610.487 109.521C594.462 114.124 576.529 125.717 572.362 144.896L587.997 148.293C590.349 137.467 601.414 128.774 614.905 124.899L610.487 109.521ZM572.361 144.901C568.097 164.591 580.218 182.652 591.002 194.706L602.926 184.039C592.472 172.353 585.523 159.718 587.998 148.288L572.361 144.901ZM590.998 194.702C596.806 201.203 601.958 206.234 606.954 212.313C611.707 218.097 615.35 223.764 617.311 229.981L632.57 225.166C629.74 216.2 624.7 208.706 619.315 202.154C614.173 195.898 607.733 189.419 602.93 184.043L590.998 194.702ZM617.313 229.985C621.185 242.234 617.553 256.739 608.366 265.723L619.554 277.162C633.051 263.961 638.262 243.169 632.568 225.162L617.313 229.985ZM608.37 265.72C599.172 274.704 584.586 278.004 572.412 273.863L567.259 289.01C585.135 295.091 606.035 290.367 619.55 277.166L608.37 265.72ZM572.417 273.864C560.643 269.851 551.46 260.167 540.062 249.036C529.412 238.635 516.588 226.794 498.878 224.947L497.219 240.861C508.719 242.06 517.891 249.748 528.883 260.483C539.127 270.487 551.232 283.547 567.254 289.009L572.417 273.864ZM498.883 224.948C480.076 222.976 464.477 233.111 451.445 242.079C437.465 251.7 426.041 260.195 412.965 261.824L414.943 277.701C432.813 275.475 447.936 263.917 460.516 255.259C474.045 245.949 485.021 239.582 497.214 240.86L498.883 224.948ZM412.961 261.824C400.033 263.441 386.215 256.91 379.255 245.894L365.729 254.441C376.001 270.698 395.862 280.088 414.947 277.701L412.961 261.824ZM379.255 245.894C372.296 234.88 372.334 219.609 379.344 208.634L365.859 200.022C355.511 216.225 355.456 238.182 365.729 254.441L379.255 245.894ZM379.345 208.632C384.058 201.247 391.272 195.673 399.668 188.252C407.503 181.327 416.283 172.781 419.679 160.466L404.255 156.212C402.223 163.579 396.815 169.419 389.071 176.264C381.888 182.613 372.133 190.192 365.858 200.024L379.345 208.632ZM419.679 160.464C424.791 141.914 415.077 123.472 403.403 111.752L392.067 123.044C401.788 132.803 407.186 145.575 404.254 156.214L419.679 160.464ZM403.401 111.75C397.524 105.854 390.961 101.024 384.586 96.653C377.999 92.1366 371.998 88.3533 366.084 83.9407L356.516 96.7646C362.744 101.412 369.616 105.789 375.538 109.849C381.673 114.055 387.257 118.218 392.069 123.046L403.401 111.75ZM366.094 83.9481C354.428 75.2159 345.262 64.8789 343.261 53.0609L327.485 55.7328C330.542 73.7785 343.902 87.323 356.506 96.7572L366.094 83.9481ZM343.261 53.0601C340.867 38.9348 350.913 23.3664 364.781 19.7166L360.709 4.24344C338.84 9.99867 323.706 33.4321 327.485 55.7336L343.261 53.0601ZM364.779 19.7172C378.639 16.0738 395.06 24.6898 399.927 38.1565L414.974 32.7187C407.29 11.4544 382.571 -1.50313 360.711 4.24283L364.779 19.7172ZM399.927 38.1566C403.875 49.0814 413.986 55.7554 422.382 59.5947C430.968 63.5214 439.926 65.4705 444.591 65.7146L445.427 49.7364C443.04 49.6115 436.05 48.2516 429.036 45.044C421.831 41.7491 416.689 37.4637 414.974 32.7186L399.927 38.1566ZM444.58 65.714C458.699 66.4736 467.965 60.3056 474.293 52.7921C477.309 49.2111 479.658 45.3421 481.565 42.0309C483.621 38.4624 484.965 35.9293 486.42 33.8438L473.297 24.6902C471.315 27.531 469.358 31.1675 467.701 34.0451C465.895 37.18 464.12 40.0336 462.055 42.4848C458.222 47.0358 453.5 50.1707 445.439 49.7371L444.58 65.714ZM609.31 141.992C601.619 155.255 604.779 172.271 614.132 183.045L626.214 172.556C620.629 166.122 619.406 156.477 623.151 150.019L609.31 141.992ZM614.129 183.042C623.511 193.859 637.954 198.561 651.289 197.937L650.54 181.954C641.082 182.397 631.774 178.966 626.217 172.559L614.129 183.042ZM651.289 197.937C658.217 197.612 665.495 195.563 671.609 191.758C677.755 187.933 683.135 182.042 685.125 174.008L669.594 170.162C668.842 173.198 666.697 175.97 663.155 178.174C659.582 180.398 655.007 181.745 650.54 181.954L651.289 197.937ZM685.125 174.006C688.183 161.645 681.897 149.591 673.742 142.498L663.241 154.569C668.407 159.063 670.777 165.38 669.593 170.164L685.125 174.006ZM673.738 142.494C666.217 135.961 654.586 129.802 642.892 127.932C631.024 126.034 617.167 128.471 609.32 141.979L623.156 150.016C626.422 144.392 632.154 142.418 640.365 143.731C648.75 145.072 657.689 149.746 663.245 154.573L673.738 142.494ZM610.581 140.341L610.573 140.349L621.887 151.662L621.895 151.655L610.581 140.341ZM723.455 2.64067C708.615 6.01755 698.332 21.8165 701.298 36.7595L716.992 33.6447C715.716 27.2184 720.593 19.701 727.005 18.2419L723.455 2.64067ZM701.297 36.754C704.25 51.688 719.761 62.3982 734.779 59.8762L732.129 44.0972C725.642 45.1865 718.266 40.0856 716.993 33.6502L701.297 36.754ZM734.78 59.8759C749.78 57.3533 760.95 42.1636 758.853 27.0817L743.005 29.2856C743.908 35.7772 738.6 43.0088 732.127 44.0975L734.78 59.8759ZM758.854 27.0873C756.767 12.001 741.889 0.43633 726.762 2.07985L728.49 17.9862C735.04 17.2746 742.107 22.7929 743.005 29.28L758.854 27.0873Z" fill="#80C23E" mask="url(#path-1-inside-1_124_1317)"/>
<path d="M158.406 196.485C152.225 196.485 146.499 195.621 141.221 193.91C135.943 192.175 131.333 189.592 127.398 186.153C123.479 182.699 120.4 178.358 118.162 173.121C115.915 167.893 114.8 161.777 114.8 154.782C114.8 147.897 115.915 141.97 118.162 137.009C120.4 132.031 123.353 127.949 127.021 124.762C130.681 121.582 134.86 119.235 139.556 117.727C144.269 116.204 149.083 115.435 154.008 115.435C159.537 115.435 164.572 116.275 169.119 117.947C173.683 119.627 177.61 121.928 180.901 124.856C184.184 127.768 186.744 131.262 188.566 135.344C190.404 139.427 191.331 143.87 191.331 148.659C191.331 152.223 190.334 154.939 188.346 156.823C186.352 158.708 183.579 159.917 180.021 160.435L141.284 166.213C142.431 169.667 144.787 172.266 148.353 174.001C151.911 175.72 155.987 176.576 160.574 176.576C164.863 176.576 168.915 176.034 172.732 174.943C176.565 173.836 179.675 172.548 182.063 171.08C183.736 172.132 185.15 173.592 186.304 175.477C187.451 177.361 188.032 179.355 188.032 181.443C188.032 186.138 185.833 189.631 181.435 191.931C178.105 193.713 174.342 194.915 170.156 195.543C165.962 196.171 162.051 196.485 158.406 196.485ZM154.008 134.873C151.495 134.873 149.311 135.297 147.473 136.129C145.651 136.969 144.159 138.045 143.012 139.364C141.858 140.667 140.986 142.119 140.405 143.729C139.839 145.346 139.501 146.987 139.399 148.659L166.229 144.294C165.915 142.206 164.76 140.11 162.773 138.013C160.778 135.925 157.857 134.873 154.008 134.873Z" fill="#65469B"/>
<path d="M200.89 155.881C200.89 148.973 201.927 142.991 204.001 137.919C206.09 132.856 208.996 128.655 212.703 125.327C216.426 121.982 220.777 119.502 225.741 117.884C230.705 116.251 236.061 115.435 241.826 115.435C243.915 115.435 245.95 115.623 247.921 116C249.908 116.361 251.534 116.801 252.791 117.319V91.9146C253.835 91.6006 255.508 91.2709 257.817 90.9097C260.119 90.5329 262.467 90.3445 264.855 90.3445C267.156 90.3445 269.221 90.5015 271.044 90.8155C272.882 91.1295 274.437 91.7576 275.693 92.6997C276.95 93.6417 277.892 94.9292 278.521 96.5622C279.149 98.1794 279.463 100.291 279.463 102.905V177.204C279.463 182.102 277.154 186.02 272.552 188.948C269.512 190.942 265.585 192.685 260.77 194.192C255.972 195.715 250.442 196.485 244.182 196.485C237.373 196.485 231.278 195.543 225.898 193.659C220.51 191.774 215.955 189.066 212.232 185.525C208.525 181.969 205.705 177.706 203.781 172.744C201.848 167.767 200.89 162.146 200.89 155.881ZM245.408 136.286C239.768 136.286 235.433 137.911 232.401 141.154C229.362 144.38 227.846 149.287 227.846 155.881C227.846 162.35 229.26 167.241 232.087 170.546C234.915 173.836 238.999 175.477 244.34 175.477C246.201 175.477 247.89 175.194 249.398 174.629C250.921 174.048 252.107 173.388 252.948 172.65V138.17C250.851 136.914 248.337 136.286 245.408 136.286Z" fill="#65469B"/>
<path d="M296.081 118.889C297.126 118.575 298.767 118.261 301.014 117.947C303.252 117.633 305.577 117.476 307.988 117.476C310.289 117.476 312.355 117.633 314.177 117.947C316.015 118.261 317.554 118.889 318.795 119.831C320.052 120.773 321.01 122.053 321.686 123.662C322.377 125.28 322.723 127.391 322.723 130.006V163.732C322.723 168.003 323.767 171.064 325.864 172.901C327.953 174.723 330.993 175.633 334.975 175.633C337.363 175.633 339.311 175.429 340.819 175.005C342.342 174.589 343.528 174.173 344.369 173.749V118.889C345.413 118.575 347.055 118.261 349.301 117.947C351.563 117.633 353.896 117.476 356.307 117.476C358.585 117.476 360.642 117.633 362.465 117.947C364.302 118.261 365.858 118.889 367.114 119.831C368.371 120.773 369.329 122.053 370.005 123.662C370.696 125.28 371.041 127.391 371.041 130.006V177.675C371.041 182.887 368.842 186.805 364.444 189.419C360.776 191.727 356.409 193.47 351.343 194.663C346.269 195.872 340.764 196.485 334.818 196.485C329.163 196.485 323.956 195.857 319.204 194.6C314.444 193.344 310.344 191.413 306.889 188.791C303.433 186.177 300.762 182.809 298.877 178.679C297.008 174.558 296.081 169.573 296.081 163.732V118.889Z" fill="#65469B"/>
<path d="M413.988 167.783C413.988 170.507 414.844 172.446 416.564 173.592C418.3 174.746 420.742 175.319 423.884 175.319C425.455 175.319 427.065 175.194 428.722 174.943C430.395 174.676 431.864 174.33 433.12 173.906C434.063 175.06 434.864 176.348 435.539 177.769C436.231 179.174 436.576 180.87 436.576 182.856C436.576 186.813 435.084 190.047 432.115 192.559C429.138 195.072 423.884 196.328 416.344 196.328C407.147 196.328 400.07 194.239 395.106 190.079C390.142 185.894 387.66 179.088 387.66 169.667V102.591C388.791 102.277 390.425 101.948 392.561 101.586C394.713 101.21 396.999 101.021 399.41 101.021C404.013 101.021 407.594 101.83 410.155 103.439C412.707 105.056 413.988 108.479 413.988 113.708V123.757H434.534C435.162 124.887 435.759 126.324 436.325 128.059C436.906 129.778 437.204 131.686 437.204 133.774C437.204 137.44 436.388 140.086 434.754 141.719C433.136 143.336 430.968 144.137 428.251 144.137H413.988V167.783Z" fill="#65469B"/>
<path d="M449.443 96.6248C449.443 92.6524 450.77 89.3081 453.433 86.6075C456.088 83.8912 459.622 82.5251 464.02 82.5251C468.419 82.5251 471.945 83.8912 474.608 86.6075C477.262 89.3081 478.598 92.6524 478.598 96.6248C478.598 100.605 477.262 103.957 474.608 106.674C471.945 109.374 468.419 110.725 464.02 110.725C459.622 110.725 456.088 109.374 453.433 106.674C450.77 103.957 449.443 100.605 449.443 96.6248ZM477.341 193.815C476.186 194.02 474.49 194.302 472.251 194.663C470.005 195.04 467.735 195.229 465.434 195.229C463.125 195.229 461.051 195.071 459.214 194.757C457.391 194.443 455.852 193.815 454.595 192.873C453.339 191.931 452.373 190.659 451.705 189.042C451.03 187.409 450.7 185.297 450.7 182.699V118.889C451.831 118.685 453.511 118.402 455.758 118.041C458.02 117.664 460.297 117.476 462.607 117.476C464.908 117.476 466.973 117.633 468.796 117.947C470.618 118.261 472.157 118.889 473.414 119.831C474.671 120.773 475.629 122.053 476.304 123.662C476.995 125.28 477.341 127.391 477.341 130.006V193.815Z" fill="#65469B"/>
<path d="M534.6 196.485C528.419 196.485 522.693 195.621 517.415 193.91C512.137 192.175 507.527 189.592 503.592 186.153C499.673 182.699 496.594 178.358 494.355 173.121C492.109 167.893 490.994 161.777 490.994 154.782C490.994 147.897 492.109 141.97 494.355 137.009C496.594 132.031 499.547 127.949 503.215 124.762C506.875 121.582 511.053 119.235 515.75 117.727C520.462 116.204 525.277 115.435 530.202 115.435C535.731 115.435 540.766 116.275 545.313 117.947C549.876 119.627 553.803 121.928 557.094 124.856C560.377 127.768 562.938 131.262 564.76 135.344C566.598 139.427 567.525 143.87 567.525 148.659C567.525 152.223 566.527 154.939 564.54 156.823C562.545 158.708 559.773 159.917 556.215 160.435L517.478 166.213C518.625 169.667 520.981 172.266 524.547 174.001C528.105 175.72 532.181 176.576 536.768 176.576C541.056 176.576 545.109 176.034 548.926 174.943C552.759 173.836 555.869 172.548 558.257 171.08C559.93 172.132 561.343 173.592 562.498 175.477C563.645 177.361 564.226 179.355 564.226 181.443C564.226 186.138 562.027 189.631 557.628 191.931C554.298 193.713 550.536 194.915 546.35 195.543C542.156 196.171 538.244 196.485 534.6 196.485ZM530.202 134.873C527.688 134.873 525.505 135.297 523.667 136.129C521.845 136.969 520.353 138.045 519.206 139.364C518.051 140.667 517.179 142.119 516.598 143.729C516.033 145.346 515.695 146.987 515.593 148.659L542.423 144.294C542.109 142.206 540.954 140.11 538.967 138.013C536.972 135.925 534.05 134.873 530.202 134.873Z" fill="#65469B"/>
</svg>
