<svg width="417" height="274" viewBox="0 0 417 274" fill="none" xmlns="http://www.w3.org/2000/svg">
<mask id="path-1-inside-1_124_1414" fill="white">
<path d="M144.952 19.3427C155.492 4.2303 177.044 -4.92351 192.956 4.38732C209.042 13.8002 211.492 35.515 213.338 54.0581C215.184 72.6013 225.093 89.5757 241.593 89.5757C258.093 89.5757 261.339 81.8194 271.593 68.5757C281.847 55.3319 303.025 35.8997 321.058 29.6192C333.774 25.1914 349.019 29.368 357.705 39.6523C366.392 49.9366 367.947 65.6613 361.436 77.4529C354.022 90.8853 338.376 97.629 323.28 100.416C308.185 103.211 292.539 103.046 277.789 107.285C263.031 111.525 248.532 121.668 245.273 136.67C241.903 152.23 251.438 167.578 262.057 179.448C272.668 191.326 285.243 202.466 290.034 217.649C294.817 232.777 290.395 250.425 279.054 261.518C267.696 272.611 249.954 276.623 234.929 271.512C207.133 262.036 192.351 226.026 163.142 222.98C132.141 219.73 109.993 255.984 79.0472 259.838C63.0404 261.84 46.2011 253.88 37.5851 240.243C28.969 226.607 29.0162 207.993 37.695 194.403C48.683 177.187 71.6329 168.096 77.0601 148.415C81.0814 133.82 73.5257 118.213 62.8284 107.474C52.1388 96.7497 38.5354 89.4879 26.3929 80.4283C14.2582 71.3452 2.9953 59.4044 0.466254 44.4725C-2.62043 26.2591 9.9698 6.7582 27.838 2.05568C45.6984 -2.63898 66.2685 8.14776 72.544 25.5133C78.2068 41.1831 103.05 47.4322 110.103 47.8012C132.283 48.9945 138.079 29.1952 144.952 19.3427ZM281.323 136.081C275.606 145.942 277.797 159.272 285.266 167.876C292.736 176.488 304.611 180.555 316.007 180.021C327.404 179.487 339.711 173.23 342.452 162.161C344.573 153.588 340.245 144.403 333.585 138.609C320.508 127.249 292.445 116.942 281.331 136.073L281.323 136.081ZM390.324 0.516963C379.697 2.93495 372.118 14.5931 374.238 25.2778C376.351 35.9625 387.795 43.868 398.547 42.0624C409.284 40.2567 417.523 29.0461 416.022 18.2593C414.53 7.47261 403.558 -1.06886 392.719 0.108733"/>
</mask>
<path d="M144.952 19.3427C155.492 4.2303 177.044 -4.92351 192.956 4.38732C209.042 13.8002 211.492 35.515 213.338 54.0581C215.184 72.6013 225.093 89.5757 241.593 89.5757C258.093 89.5757 261.339 81.8194 271.593 68.5757C281.847 55.3319 303.025 35.8997 321.058 29.6192C333.774 25.1914 349.019 29.368 357.705 39.6523C366.392 49.9366 367.947 65.6613 361.436 77.4529C354.022 90.8853 338.376 97.629 323.28 100.416C308.185 103.211 292.539 103.046 277.789 107.285C263.031 111.525 248.532 121.668 245.273 136.67C241.903 152.23 251.438 167.578 262.057 179.448C272.668 191.326 285.243 202.466 290.034 217.649C294.817 232.777 290.395 250.425 279.054 261.518C267.696 272.611 249.954 276.623 234.929 271.512C207.133 262.036 192.351 226.026 163.142 222.98C132.141 219.73 109.993 255.984 79.0472 259.838C63.0404 261.84 46.2011 253.88 37.5851 240.243C28.969 226.607 29.0162 207.993 37.695 194.403C48.683 177.187 71.6329 168.096 77.0601 148.415C81.0814 133.82 73.5257 118.213 62.8284 107.474C52.1388 96.7497 38.5354 89.4879 26.3929 80.4283C14.2582 71.3452 2.9953 59.4044 0.466254 44.4725C-2.62043 26.2591 9.9698 6.7582 27.838 2.05568C45.6984 -2.63898 66.2685 8.14776 72.544 25.5133C78.2068 41.1831 103.05 47.4322 110.103 47.8012C132.283 48.9945 138.079 29.1952 144.952 19.3427ZM281.323 136.081C275.606 145.942 277.797 159.272 285.266 167.876C292.736 176.488 304.611 180.555 316.007 180.021C327.404 179.487 339.711 173.23 342.452 162.161C344.573 153.588 340.245 144.403 333.585 138.609C320.508 127.249 292.445 116.942 281.331 136.073L281.323 136.081ZM390.324 0.516963C379.697 2.93495 372.118 14.5931 374.238 25.2778C376.351 35.9625 387.795 43.868 398.547 42.0624C409.284 40.2567 417.523 29.0461 416.022 18.2593C414.53 7.47261 403.558 -1.06886 392.719 0.108733" fill="#80C23E" fill-opacity="0.75"/>
<path d="M144.952 19.3427L151.513 23.9195L151.513 23.9192L144.952 19.3427ZM192.956 4.38732L196.997 -2.51735L196.996 -2.51753L192.956 4.38732ZM213.338 54.0581L205.377 54.8505L213.338 54.0581ZM321.058 29.6192L318.427 22.0641L318.427 22.0642L321.058 29.6192ZM357.705 39.6523L351.594 44.8145L357.705 39.6523ZM361.436 77.4529L354.433 73.5859L354.432 73.587L361.436 77.4529ZM323.28 100.416L321.828 92.5489L321.824 92.5497L323.28 100.416ZM277.789 107.285L279.998 114.974L279.999 114.974L277.789 107.285ZM245.273 136.67L237.455 134.972L237.454 134.977L245.273 136.67ZM262.057 179.448L268.023 174.118L268.02 174.114L262.057 179.448ZM290.034 217.649L282.405 220.057L282.406 220.061L290.034 217.649ZM279.054 261.518L284.643 267.241L284.647 267.238L279.054 261.518ZM234.929 271.512L232.348 279.084L232.353 279.086L234.929 271.512ZM163.142 222.98L162.308 230.936L162.312 230.937L163.142 222.98ZM79.0472 259.838L78.0583 251.9L78.0544 251.9L79.0472 259.838ZM37.5851 240.243L30.8219 244.516L37.5851 240.243ZM37.695 194.403L44.4373 198.709L44.4386 198.707L37.695 194.403ZM77.0601 148.415L84.7723 150.541L84.7727 150.54L77.0601 148.415ZM62.8284 107.474L68.4963 101.828L68.4943 101.826L62.8284 107.474ZM26.3929 80.4283L21.5989 86.8329L21.6089 86.8403L26.3929 80.4283ZM0.466254 44.4725L8.35392 43.1366L8.35379 43.1358L0.466254 44.4725ZM27.838 2.05568L25.8043 -5.68149L25.8019 -5.68087L27.838 2.05568ZM72.544 25.5133L65.0202 28.2322L65.0202 28.2323L72.544 25.5133ZM110.103 47.8012L110.532 39.8127L110.521 39.8121L110.103 47.8012ZM281.323 136.081L275.667 130.424L274.927 131.164L274.403 132.068L281.323 136.081ZM285.266 167.876L291.31 162.635L291.307 162.632L285.266 167.876ZM342.452 162.161L350.218 164.084L350.218 164.082L342.452 162.161ZM333.585 138.609L338.836 132.573L338.831 132.57L333.585 138.609ZM281.331 136.073L286.988 141.73L287.725 140.993L288.249 140.092L281.331 136.073ZM374.238 25.2778L382.086 23.7259L382.085 23.7204L374.238 25.2778ZM398.547 42.0624L399.872 49.9519L399.874 49.9516L398.547 42.0624ZM416.022 18.2593L408.098 19.3557L408.099 19.3613L416.022 18.2593ZM151.513 23.9192C155.817 17.7489 162.46 12.7259 169.559 10.2651C176.621 7.81746 183.45 8.09404 188.916 11.2922L196.996 -2.51753C186.55 -8.63023 174.647 -8.43216 164.319 -4.85251C154.03 -1.28601 144.627 5.8241 138.39 14.7662L151.513 23.9192ZM188.916 11.292C194.621 14.6305 198.345 20.3494 200.867 28.236C203.424 36.2295 204.443 45.4621 205.377 54.8505L221.298 53.2657C220.387 44.111 219.258 33.2147 216.107 23.3618C212.921 13.402 207.377 3.55706 196.997 -2.51735L188.916 11.292ZM205.377 54.8505C206.403 65.1602 209.697 75.4943 215.5 83.4751C221.408 91.6007 230.216 97.5757 241.593 97.5757V81.5757C236.471 81.5757 232.074 79.0634 228.441 74.066C224.702 68.9239 222.118 61.4992 221.298 53.2657L205.377 54.8505ZM241.593 97.5757C251.374 97.5757 258.289 95.1789 264.169 90.0927C266.858 87.767 269.128 85.0528 271.227 82.3404C272.284 80.9746 273.366 79.5179 274.452 78.06C275.554 76.5813 276.687 75.0644 277.919 73.4733L265.268 63.678C263.936 65.3979 262.725 67.0204 261.622 68.5008C260.503 70.002 259.521 71.324 258.574 72.5478C256.665 75.0145 255.169 76.7226 253.702 77.9914C251.271 80.0942 248.313 81.5757 241.593 81.5757V97.5757ZM277.919 73.4733C282.645 67.3692 290.078 59.6182 298.505 52.6525C307.01 45.6229 315.961 39.8654 323.689 37.1741L318.427 22.0642C308.121 25.6535 297.467 32.7523 288.312 40.3199C279.079 47.9514 270.796 56.5383 265.268 63.678L277.919 73.4733ZM323.688 37.1743C333.275 33.8363 345.044 37.0598 351.594 44.8145L363.817 34.49C352.993 21.6761 334.273 16.5465 318.427 22.0641L323.688 37.1743ZM351.594 44.8145C358.14 52.5649 359.34 64.6978 354.433 73.5859L368.439 81.32C376.554 66.6248 374.644 47.3082 363.817 34.49L351.594 44.8145ZM354.432 73.587C348.772 83.8419 336.133 89.9079 321.828 92.5489L324.733 108.283C340.619 105.35 359.272 97.9288 368.44 81.3189L354.432 73.587ZM321.824 92.5497C314.658 93.8764 307.436 94.4899 299.533 95.3566C291.824 96.202 283.651 97.2766 275.579 99.5965L279.999 114.974C286.677 113.055 293.702 112.092 301.277 111.261C308.658 110.452 316.807 109.75 324.737 108.282L321.824 92.5497ZM275.58 99.5962C259.555 104.2 241.622 115.793 237.455 134.972L253.09 138.369C255.443 127.542 266.507 118.85 279.998 114.974L275.58 99.5962ZM237.454 134.977C233.19 154.666 245.311 172.728 256.095 184.782L268.02 174.114C257.566 162.428 250.616 149.794 253.092 138.363L237.454 134.977ZM256.091 184.778C261.899 191.279 267.051 196.31 272.047 202.389C276.801 208.172 280.443 213.84 282.405 220.057L297.663 215.242C294.834 206.275 289.793 198.781 284.408 192.23C279.267 185.973 272.826 179.495 268.023 174.118L256.091 184.778ZM282.406 220.061C286.279 232.31 282.646 246.814 273.46 255.799L284.647 267.238C298.144 254.037 303.355 233.245 297.662 215.237L282.406 220.061ZM273.464 255.795C264.265 264.78 249.68 268.08 237.505 263.938L232.353 279.086C250.228 285.166 271.128 280.442 284.643 267.241L273.464 255.795ZM237.51 263.94C225.737 259.926 216.553 250.243 205.155 239.111C194.505 228.711 181.681 216.87 163.972 215.023L162.312 230.937C173.812 232.136 182.984 239.823 193.976 250.558C204.22 260.563 216.325 273.622 232.348 279.084L237.51 263.94ZM163.976 215.023C145.169 213.052 129.57 223.187 116.539 232.154C102.558 241.775 91.134 250.271 78.0583 251.9L80.0361 267.777C97.9058 265.551 113.029 253.992 125.609 245.335C139.139 236.024 150.114 229.658 162.308 230.936L163.976 215.023ZM78.0544 251.9C65.1258 253.517 51.3083 246.986 44.3482 235.97L30.8219 244.516C41.0938 260.774 60.955 270.163 80.04 267.776L78.0544 251.9ZM44.3482 235.97C37.3889 224.956 37.4278 209.685 44.4373 198.709L30.9527 190.098C20.6046 206.301 20.5492 228.258 30.8219 244.516L44.3482 235.97ZM44.4386 198.707C49.1517 191.323 56.3652 185.749 64.761 178.328C72.5959 171.402 81.3763 162.856 84.7723 150.541L69.3479 146.288C67.3167 153.654 61.9085 159.495 54.1647 166.339C46.9817 172.688 37.2263 180.268 30.9514 190.1L44.4386 198.707ZM84.7727 150.54C89.884 131.99 80.1698 113.548 68.4963 101.828L57.1604 113.119C66.8816 122.879 72.2789 135.651 69.3475 146.289L84.7727 150.54ZM68.4943 101.826C62.617 95.9297 56.0543 91.0995 49.6792 86.7287C43.0918 82.2123 37.0911 78.429 31.1769 74.0163L21.6089 86.8403C27.8372 91.4873 34.7095 95.8647 40.6317 99.925C46.7664 104.131 52.3502 108.294 57.1624 113.121L68.4943 101.826ZM31.1868 74.0238C19.521 65.2916 10.3556 54.9546 8.35392 43.1366L-7.42141 45.8085C-4.36497 63.8542 8.99533 77.3987 21.5989 86.8328L31.1868 74.0238ZM8.35379 43.1358C5.95992 29.0104 16.0059 13.442 29.8741 9.79224L25.8019 -5.68087C3.93368 0.0743566 -11.2008 23.5078 -7.42128 45.8093L8.35379 43.1358ZM29.8718 9.79286C43.7326 6.14948 60.1536 14.7655 65.0202 28.2322L80.0678 22.7944C72.3834 1.53006 47.6642 -11.4274 25.8043 -5.68149L29.8718 9.79286ZM65.0202 28.2323C68.9683 39.1571 79.0796 45.8311 87.4749 49.6704C96.0614 53.5971 105.019 55.5462 109.685 55.7903L110.521 39.8121C108.133 39.6872 101.143 38.3272 94.1291 35.1197C86.924 31.8248 81.7825 27.5394 80.0677 22.7943L65.0202 28.2323ZM109.673 55.7896C123.792 56.5492 133.058 50.3813 139.386 42.8678C142.402 39.2868 144.751 35.4178 146.658 32.1066C148.714 28.5381 150.058 26.005 151.513 23.9195L138.39 14.7659C136.409 17.6067 134.451 21.2432 132.794 24.1208C130.988 27.2557 129.213 30.1093 127.149 32.5605C123.316 37.1114 118.593 40.2464 110.532 39.8127L109.673 55.7896ZM274.403 132.068C266.712 145.33 269.872 162.346 279.225 173.121L291.307 162.632C285.722 156.198 284.499 146.553 288.244 140.094L274.403 132.068ZM279.223 173.118C288.604 183.935 303.047 188.637 316.382 188.012L315.633 172.03C306.175 172.473 296.867 169.042 291.31 162.635L279.223 173.118ZM316.382 188.012C323.311 187.688 330.588 185.639 336.703 181.834C342.849 178.009 348.229 172.117 350.218 164.084L334.687 160.238C333.935 163.274 331.791 166.045 328.249 168.25C324.675 170.474 320.101 171.821 315.633 172.03L316.382 188.012ZM350.218 164.082C353.276 151.721 346.99 139.667 338.836 132.573L328.335 144.645C333.501 149.139 335.87 155.456 334.686 160.24L350.218 164.082ZM338.831 132.57C331.311 126.037 319.68 119.877 307.985 118.007C296.118 116.11 282.261 118.547 274.414 132.055L288.249 140.092C291.516 134.468 297.247 132.493 305.459 133.807C313.843 135.147 322.782 139.822 328.339 144.649L338.831 132.57ZM275.674 130.417L275.667 130.424L286.98 141.738L286.988 141.73L275.674 130.417ZM388.549 -7.28365C373.708 -3.90677 363.426 11.8922 366.391 26.8352L382.085 23.7204C380.81 17.2941 385.686 9.77667 392.099 8.31758L388.549 -7.28365ZM366.39 26.8296C369.343 41.7637 384.854 52.4739 399.872 49.9519L397.222 34.1729C390.735 35.2622 383.359 30.1612 382.086 23.7259L366.39 26.8296ZM399.874 49.9516C414.873 47.429 426.044 32.2392 423.946 17.1574L408.099 19.3613C409.002 25.8529 403.694 33.0845 397.22 34.1732L399.874 49.9516ZM423.947 17.163C421.86 2.07665 406.982 -9.48799 391.855 -7.84446L393.583 8.06193C400.133 7.35027 407.2 12.8686 408.098 19.3557L423.947 17.163Z" fill="#80C23E" mask="url(#path-1-inside-1_124_1414)"/>
<path d="M165.944 202C156.171 202 147.119 200.615 138.774 197.87C130.429 195.087 123.14 190.944 116.918 185.429C110.722 179.888 105.854 172.925 102.315 164.526C98.7633 156.14 97 146.331 97 135.111C97 124.068 98.7633 114.561 102.315 106.603C105.854 98.6195 110.523 92.0717 116.322 86.9593C122.109 81.8596 128.715 78.0945 136.141 75.6769C143.592 73.234 151.204 72 158.99 72C167.732 72 175.692 73.3473 182.882 76.0294C190.097 78.7241 196.306 82.4136 201.509 87.1104C206.7 91.7821 210.748 97.3855 213.629 103.933C216.535 110.481 218 117.608 218 125.289C218 131.006 216.423 135.363 213.281 138.385C210.127 141.407 205.744 143.346 200.118 144.177L138.873 153.445C140.686 158.986 144.412 163.154 150.049 165.936C155.675 168.694 162.119 170.067 169.372 170.067C176.152 170.067 182.559 169.198 188.594 167.448C194.654 165.672 199.572 163.607 203.347 161.252C205.992 162.94 208.227 165.282 210.053 168.304C211.866 171.326 212.784 174.524 212.784 177.874C212.784 185.404 209.307 191.007 202.353 194.697C197.088 197.555 191.14 199.482 184.521 200.489C177.89 201.496 171.706 202 165.944 202ZM158.99 103.178C155.016 103.178 151.564 103.858 148.658 105.193C145.778 106.54 143.418 108.265 141.605 110.38C139.78 112.471 138.401 114.8 137.482 117.382C136.588 119.976 136.054 122.607 135.893 125.289L178.312 118.288C177.816 114.939 175.99 111.577 172.849 108.215C169.694 104.865 165.075 103.178 158.99 103.178Z" fill="#65469B"/>
</svg>
