<svg width="418" height="275" viewBox="0 0 418 275" fill="none" xmlns="http://www.w3.org/2000/svg">
<mask id="path-1-inside-1_124_1318" fill="white">
<path d="M145.858 20.267C156.399 5.15462 177.95 -3.99919 193.863 5.31163C209.948 14.7245 212.399 36.4393 214.245 54.9824C216.09 73.5256 226 90.5 242.5 90.5C259 90.5 262.246 82.7437 272.5 69.5C282.754 56.2562 303.931 36.824 321.964 30.5435C334.68 26.1157 349.925 30.2923 358.612 40.5766C367.299 50.8609 368.854 66.5856 362.343 78.3773C354.928 91.8097 339.283 98.5533 324.187 101.34C309.091 104.135 293.446 103.97 278.696 108.21C263.938 112.449 249.439 122.592 246.18 137.594C242.81 153.154 252.345 168.502 262.964 180.372C273.575 192.25 286.149 203.39 290.94 218.573C295.724 233.702 291.302 251.35 279.96 262.443C268.603 273.536 250.861 277.547 235.836 272.436C208.04 262.961 193.258 226.95 164.049 223.904C133.048 220.654 110.899 256.908 79.954 260.763C63.9472 262.765 47.1078 254.804 38.4918 241.167C29.8758 227.531 29.9229 208.917 38.6018 195.328C49.5897 178.111 72.5396 169.02 77.9668 149.339C81.9882 134.745 74.4325 119.138 63.7351 108.398C53.0456 97.6741 39.4421 90.4122 27.2996 81.3526C15.1649 72.2695 3.90204 60.3287 1.37299 45.3968C-1.7137 27.1834 10.8765 7.68251 28.7448 2.98C46.6051 -1.71466 59.4014 4.87524 73.4507 26.4376C87.5 48 103.956 48.3565 111.009 48.7255C133.189 49.9188 138.986 30.1196 145.858 20.267ZM282.23 137.006C276.512 146.866 278.704 160.196 286.173 168.801C293.642 177.413 305.518 181.479 316.914 180.945C328.311 180.412 340.618 174.155 343.359 163.085C345.48 154.512 341.152 145.327 334.492 139.534C321.415 128.174 293.352 117.866 282.238 136.998L282.23 137.006ZM391.23 1.44128C380.604 3.85927 373.024 15.5174 375.145 26.2021C377.258 36.8868 388.701 44.7923 399.454 42.9867C410.19 41.1811 418.429 29.9704 416.929 19.1837C415.437 8.39692 404.465 -0.144543 393.626 1.03305"/>
</mask>
<path d="M145.858 20.267C156.399 5.15462 177.95 -3.99919 193.863 5.31163C209.948 14.7245 212.399 36.4393 214.245 54.9824C216.09 73.5256 226 90.5 242.5 90.5C259 90.5 262.246 82.7437 272.5 69.5C282.754 56.2562 303.931 36.824 321.964 30.5435C334.68 26.1157 349.925 30.2923 358.612 40.5766C367.299 50.8609 368.854 66.5856 362.343 78.3773C354.928 91.8097 339.283 98.5533 324.187 101.34C309.091 104.135 293.446 103.97 278.696 108.21C263.938 112.449 249.439 122.592 246.18 137.594C242.81 153.154 252.345 168.502 262.964 180.372C273.575 192.25 286.149 203.39 290.94 218.573C295.724 233.702 291.302 251.35 279.96 262.443C268.603 273.536 250.861 277.547 235.836 272.436C208.04 262.961 193.258 226.95 164.049 223.904C133.048 220.654 110.899 256.908 79.954 260.763C63.9472 262.765 47.1078 254.804 38.4918 241.167C29.8758 227.531 29.9229 208.917 38.6018 195.328C49.5897 178.111 72.5396 169.02 77.9668 149.339C81.9882 134.745 74.4325 119.138 63.7351 108.398C53.0456 97.6741 39.4421 90.4122 27.2996 81.3526C15.1649 72.2695 3.90204 60.3287 1.37299 45.3968C-1.7137 27.1834 10.8765 7.68251 28.7448 2.98C46.6051 -1.71466 59.4014 4.87524 73.4507 26.4376C87.5 48 103.956 48.3565 111.009 48.7255C133.189 49.9188 138.986 30.1196 145.858 20.267ZM282.23 137.006C276.512 146.866 278.704 160.196 286.173 168.801C293.642 177.413 305.518 181.479 316.914 180.945C328.311 180.412 340.618 174.155 343.359 163.085C345.48 154.512 341.152 145.327 334.492 139.534C321.415 128.174 293.352 117.866 282.238 136.998L282.23 137.006ZM391.23 1.44128C380.604 3.85927 373.024 15.5174 375.145 26.2021C377.258 36.8868 388.701 44.7923 399.454 42.9867C410.19 41.1811 418.429 29.9704 416.929 19.1837C415.437 8.39692 404.465 -0.144543 393.626 1.03305" fill="#80C23E" fill-opacity="0.75"/>
<path d="M145.858 20.267L152.42 24.8438L152.42 24.8435L145.858 20.267ZM193.863 5.31163L197.903 -1.59303L197.903 -1.59321L193.863 5.31163ZM214.245 54.9824L206.284 55.7748L206.284 55.7748L214.245 54.9824ZM321.964 30.5435L319.334 22.9884L319.333 22.9886L321.964 30.5435ZM358.612 40.5766L352.5 45.7388L352.5 45.7388L358.612 40.5766ZM362.343 78.3773L355.339 74.5102L355.339 74.5113L362.343 78.3773ZM324.187 101.34L322.735 93.4732L322.731 93.474L324.187 101.34ZM278.696 108.21L280.905 115.899L280.906 115.898L278.696 108.21ZM246.18 137.594L238.362 135.896L238.361 135.901L246.18 137.594ZM262.964 180.372L268.93 175.043L268.926 175.039L262.964 180.372ZM290.94 218.573L283.311 220.981L283.313 220.985L290.94 218.573ZM279.96 262.443L285.55 268.166L285.554 268.162L279.96 262.443ZM235.836 272.436L233.254 280.009L233.259 280.01L235.836 272.436ZM164.049 223.904L163.214 231.86L163.219 231.861L164.049 223.904ZM79.954 260.763L78.9651 252.824L78.9612 252.824L79.954 260.763ZM38.4918 241.167L31.7287 245.441L31.7287 245.441L38.4918 241.167ZM38.6018 195.328L45.3441 199.634L45.3453 199.632L38.6018 195.328ZM77.9668 149.339L85.679 151.466L85.6794 151.464L77.9668 149.339ZM63.7351 108.398L69.4031 102.752L69.401 102.75L63.7351 108.398ZM27.2996 81.3526L22.5056 87.7572L22.5156 87.7646L27.2996 81.3526ZM1.37299 45.3968L9.26066 44.0609L9.26052 44.0601L1.37299 45.3968ZM28.7448 2.98L26.711 -4.75717L26.7087 -4.75656L28.7448 2.98ZM111.009 48.7255L111.439 40.737L111.427 40.7364L111.009 48.7255ZM282.23 137.006L276.573 131.349L275.834 132.088L275.31 132.992L282.23 137.006ZM286.173 168.801L292.217 163.559L292.214 163.556L286.173 168.801ZM343.359 163.085L351.125 165.008L351.125 165.006L343.359 163.085ZM334.492 139.534L339.742 133.498L339.738 133.494L334.492 139.534ZM282.238 136.998L287.895 142.655L288.632 141.918L289.156 141.016L282.238 136.998ZM375.145 26.2021L382.993 24.6502L382.992 24.6447L375.145 26.2021ZM399.454 42.9867L400.779 50.8762L400.78 50.8759L399.454 42.9867ZM416.929 19.1837L409.005 20.28L409.005 20.2856L416.929 19.1837ZM152.42 24.8435C156.723 18.6732 163.366 13.6502 170.466 11.1894C177.528 8.74178 184.357 9.01836 189.823 12.2165L197.903 -1.59321C187.456 -7.70592 175.554 -7.50784 165.226 -3.92819C154.936 -0.361694 145.533 6.74842 139.297 15.6905L152.42 24.8435ZM189.822 12.2163C195.527 15.5548 199.251 21.2737 201.774 29.1603C204.33 37.1538 205.349 46.3865 206.284 55.7748L222.205 54.1901C221.294 45.0353 220.165 34.139 217.013 24.2861C213.828 14.3263 208.284 4.48137 197.903 -1.59303L189.822 12.2163ZM206.284 55.7748C207.31 66.0845 210.604 76.4186 216.406 84.3994C222.314 92.525 231.123 98.5 242.5 98.5V82.5C237.378 82.5 232.981 79.9878 229.347 74.9904C225.609 69.8482 223.025 62.4235 222.205 54.1901L206.284 55.7748ZM242.5 98.5C252.281 98.5 259.195 96.1033 265.076 91.017C267.765 88.6913 270.034 85.9771 272.134 83.2647C273.191 81.8989 274.273 80.4422 275.359 78.9843C276.461 77.5056 277.594 75.9887 278.826 74.3976L266.174 64.6024C264.843 66.3222 263.631 67.9447 262.529 69.4251C261.41 70.9263 260.427 72.2484 259.48 73.4721C257.571 75.9389 256.076 77.6469 254.609 78.9157C252.178 81.0185 249.219 82.5 242.5 82.5V98.5ZM278.826 74.3976C283.552 68.2935 290.984 60.5425 299.412 53.5768C307.917 46.5472 316.868 40.7897 324.596 38.0984L319.333 22.9886C309.028 26.5778 298.374 33.6766 289.218 41.2442C279.985 48.8757 271.702 57.4626 266.174 64.6024L278.826 74.3976ZM324.595 38.0986C334.181 34.7606 345.95 37.9842 352.5 45.7388L364.724 35.4144C353.9 22.6004 335.179 17.4709 319.334 22.9884L324.595 38.0986ZM352.5 45.7388C359.047 53.4892 360.247 65.6222 355.339 74.5102L369.346 82.2443C377.46 67.5491 375.551 48.2326 364.724 35.4144L352.5 45.7388ZM355.339 74.5113C349.678 84.7662 337.04 90.8323 322.735 93.4732L325.64 109.207C341.526 106.274 360.178 98.8531 369.347 82.2432L355.339 74.5113ZM322.731 93.474C315.564 94.8007 308.343 95.4142 300.44 96.2809C292.731 97.1263 284.558 98.2009 276.486 100.521L280.906 115.898C287.584 113.979 294.609 113.016 302.184 112.186C309.565 111.376 317.714 110.675 325.644 109.207L322.731 93.474ZM276.487 100.521C260.462 105.124 242.529 116.717 238.362 135.896L253.997 139.293C256.349 128.467 267.414 119.774 280.905 115.899L276.487 100.521ZM238.361 135.901C234.097 155.591 246.218 173.652 257.002 185.706L268.926 175.039C258.472 163.353 251.523 150.718 253.998 139.288L238.361 135.901ZM256.998 185.702C262.806 192.203 267.958 197.234 272.954 203.313C277.707 209.097 281.35 214.764 283.311 220.981L298.57 216.166C295.74 207.2 290.7 199.706 285.315 193.154C280.173 186.898 273.733 180.419 268.93 175.043L256.998 185.702ZM283.313 220.985C287.185 233.234 283.553 247.739 274.366 256.723L285.554 268.162C299.051 254.961 304.262 234.169 298.568 216.162L283.313 220.985ZM274.37 256.72C265.172 265.704 250.586 269.004 238.412 264.863L233.259 280.01C251.135 286.091 272.035 281.367 285.55 268.166L274.37 256.72ZM238.417 264.864C226.644 260.851 217.46 251.167 206.062 240.036C195.412 229.635 182.588 217.794 164.878 215.947L163.219 231.861C174.719 233.06 183.891 240.748 194.883 251.483C205.127 261.487 217.232 274.547 233.254 280.009L238.417 264.864ZM164.883 215.948C146.076 213.976 130.477 224.111 117.445 233.079C103.465 242.7 92.0408 251.195 78.9651 252.824L80.9428 268.701C98.8126 266.475 113.936 254.917 126.516 246.259C140.045 236.949 151.021 230.582 163.214 231.86L164.883 215.948ZM78.9612 252.824C66.0325 254.441 52.2151 247.91 45.2549 236.894L31.7287 245.441C42.0006 261.698 61.8618 271.088 80.9467 268.701L78.9612 252.824ZM45.2549 236.894C38.2956 225.88 38.3345 210.609 45.3441 199.634L31.8594 191.022C21.5113 207.225 21.4559 229.182 31.7287 245.441L45.2549 236.894ZM45.3453 199.632C50.0584 192.247 57.272 186.673 65.6677 179.252C73.5026 172.327 82.2831 163.781 85.679 151.466L70.2547 147.212C68.2234 154.579 62.8153 160.419 55.0714 167.264C47.8885 173.613 38.1331 181.192 31.8582 191.024L45.3453 199.632ZM85.6794 151.464C90.7908 132.914 81.0766 114.472 69.4031 102.752L58.0671 114.044C67.7884 123.803 73.1856 136.575 70.2543 147.214L85.6794 151.464ZM69.401 102.75C63.5237 96.854 56.961 92.0238 50.586 87.653C43.9985 83.1366 37.9978 79.3533 32.0836 74.9407L22.5156 87.7646C28.7439 92.4116 35.6162 96.789 41.5385 100.849C47.6732 105.055 53.2569 109.218 58.0692 114.046L69.401 102.75ZM32.0936 74.9481C20.4278 66.2159 11.2623 55.8789 9.26066 44.0609L-6.51467 46.7328C-3.45823 64.7785 9.90207 78.323 22.5056 87.7572L32.0936 74.9481ZM9.26052 44.0601C6.86665 29.9348 16.9127 14.3664 30.7809 10.7166L26.7087 -4.75656C4.84042 0.998673 -10.294 24.4321 -6.51454 46.7336L9.26052 44.0601ZM30.7785 10.7172C38.2162 8.76215 43.761 9.30819 48.8219 11.9528C54.2349 14.7813 60.0302 20.4947 66.748 30.8049L80.1534 22.0703C72.8219 10.8182 65.1945 2.45543 56.2319 -2.22791C46.9173 -7.09523 37.1337 -7.49682 26.711 -4.75717L30.7785 10.7172ZM66.748 30.8049C74.6024 42.8597 83.4572 49.426 91.7606 52.907C99.9349 56.3338 107.091 56.5315 110.591 56.7146L111.427 40.7364C107.875 40.5506 103.276 40.3854 97.9466 38.1512C92.7463 35.9711 86.3483 31.578 80.1534 22.0703L66.748 30.8049ZM110.58 56.7139C124.699 57.4736 133.965 51.3056 140.293 43.7921C143.309 40.2111 145.658 36.3421 147.565 33.0309C149.621 29.4624 150.965 26.9293 152.42 24.8438L139.297 15.6902C137.315 18.531 135.358 22.1675 133.701 25.0451C131.895 28.18 130.12 31.0336 128.055 33.4848C124.222 38.0358 119.5 41.1707 111.439 40.7371L110.58 56.7139ZM275.31 132.992C267.619 146.255 270.779 163.271 280.132 174.045L292.214 163.556C286.629 157.122 285.406 147.477 289.151 141.019L275.31 132.992ZM280.129 174.042C289.511 184.859 303.954 189.561 317.289 188.937L316.54 172.954C307.082 173.397 297.774 169.966 292.217 163.559L280.129 174.042ZM317.289 188.937C324.217 188.612 331.495 186.563 337.609 182.758C343.756 178.933 349.135 173.042 351.125 165.008L335.594 161.162C334.842 164.198 332.697 166.97 329.155 169.174C325.582 171.398 321.007 172.745 316.54 172.954L317.289 188.937ZM351.125 165.006C354.183 152.645 347.897 140.591 339.742 133.498L329.241 145.569C334.407 150.063 336.777 156.38 335.593 161.164L351.125 165.006ZM339.738 133.494C332.217 126.961 320.586 120.802 308.892 118.932C297.024 117.034 283.167 119.471 275.32 132.979L289.156 141.016C292.422 135.392 298.154 133.418 306.365 134.731C314.75 136.072 323.689 140.746 329.245 145.573L339.738 133.494ZM276.581 131.341L276.573 131.349L287.887 142.662L287.895 142.655L276.581 131.341ZM389.455 -6.35933C374.615 -2.98245 364.332 12.8165 367.298 27.7595L382.992 24.6447C381.716 18.2184 386.593 10.701 393.005 9.24189L389.455 -6.35933ZM367.297 27.754C370.25 42.688 385.761 53.3982 400.779 50.8762L398.129 35.0972C391.642 36.1865 384.266 31.0856 382.993 24.6502L367.297 27.754ZM400.78 50.8759C415.78 48.3533 426.95 33.1636 424.853 18.0817L409.005 20.2856C409.908 26.7772 404.6 34.0088 398.127 35.0975L400.78 50.8759ZM424.854 18.0873C422.767 3.00097 407.889 -8.56367 392.762 -6.92015L394.49 8.98625C401.04 8.27459 408.107 13.7929 409.005 20.28L424.854 18.0873Z" fill="#80C23E" mask="url(#path-1-inside-1_124_1318)"/>
</svg>
